<?xml version="1.0" encoding="UTF-8"?>
<svg width="60" height="60" viewBox="0 0 60 60" xmlns="http://www.w3.org/2000/svg">
  <g fill="currentColor" fill-rule="evenodd">
    <path d="M30 10c-5.523 0-10 4.477-10 10 0 3.27 1.573 6.175 4 8l6-6-6-6c-1.236-1.236-2-2.942-2-4.828 0-3.314 2.686-6 6-6 1.886 0 3.592.764 4.828 2L39 13.344l6-6C43.175 4.573 40.27 3 37 3c-5.523 0-10 4.477-10 10"/>
    <path d="M37 30c0-5.523-4.477-10-10-10-3.27 0-6.175 1.573-8 4l6 6 6-6c1.236-1.236 2.942-2 4.828-2 3.314 0 6 2.686 6 6 0 1.886-.764 3.592-2 4.828L33.656 39l6 6c2.427-1.825 4-4.73 4-8"/>
  </g>
</svg> 